<svg width="85" height="85" viewBox="0 0 85 85" fill="none" xmlns="http://www.w3.org/2000/svg">
<path d="M42.3763 32.4114C45.5517 32.4114 48.1273 29.8534 48.1273 26.7133C48.1273 23.5731 45.5517 21.0151 42.3763 21.0151C39.2009 21.0151 36.6252 23.5731 36.6252 26.7133C36.6252 29.8534 39.2009 32.4114 42.3763 32.4114ZM42.3763 23.6437C44.0875 23.6437 45.4812 25.0021 45.4812 26.6956C45.4812 28.3715 44.0875 29.7476 42.3763 29.7476C40.6651 29.7476 39.2714 28.3892 39.2714 26.6956C39.2716 25.0197 40.6653 23.6437 42.3763 23.6437Z" fill="white"/>
<path d="M51.2325 32.4291C51.9558 32.4291 52.5556 31.8293 52.5556 31.106V30.3474L56.6484 32.288C56.8248 32.3762 57.0188 32.4114 57.2129 32.4114C57.7068 32.4114 58.1832 32.1292 58.3949 31.7058C58.7124 31.0531 58.4301 30.2592 57.7774 29.9417L54.2139 28.2481L57.8127 26.3958C58.2537 26.1664 58.536 25.7078 58.536 25.2138V22.3559C58.536 21.6326 57.9362 21.0328 57.2129 21.0328H51.2325C50.5092 21.0328 49.9094 21.6326 49.9094 22.3559V28.2658V31.106C49.9094 31.8293 50.509 32.4291 51.2325 32.4291ZM52.5556 23.6437H55.8898V24.367L52.5556 26.0782V23.6437Z" fill="white"/>
<path d="M31.8624 32.3408C32.621 32.3408 33.3795 32.182 34.0852 31.7939C34.7379 31.4764 35.0025 30.6825 34.685 30.0298C34.3674 29.3771 33.5736 29.1124 32.9209 29.43C31.8095 29.9769 30.4864 29.6064 29.7102 28.5303C29.6925 28.495 29.6572 28.4774 29.6396 28.4421C28.7399 27.4012 28.7399 25.9547 29.6396 24.9138C29.6572 24.8962 29.6925 24.8609 29.7102 24.8256C30.4687 23.7495 31.8448 23.3085 33.0444 23.7495C33.7147 24.0141 34.4909 23.6613 34.7379 22.9733C35.0025 22.3029 34.6497 21.5267 33.9617 21.2797C31.686 20.4329 29.0751 21.2444 27.5932 23.2379C25.882 25.249 25.882 28.1245 27.5932 30.1356C28.634 31.5646 30.2394 32.3408 31.8624 32.3408Z" fill="white"/>
<path d="M67.6389 23.6613C68.3622 23.6613 68.962 23.0615 68.962 22.3382C68.962 21.6149 68.3622 21.0151 67.6389 21.0151H61.6585C60.9353 21.0151 60.3354 21.6149 60.3354 22.3382V31.1059C60.3354 31.8292 60.9353 32.429 61.6585 32.429H67.6389C68.3622 32.429 68.962 31.8292 68.962 31.1059C68.962 30.3826 68.3622 29.7652 67.6389 29.7652H62.9816V28.0364H64.5341C65.2574 28.0364 65.8572 27.4365 65.8572 26.7133C65.8572 25.99 65.2574 25.3902 64.5341 25.3902H62.9816V23.6613H67.6389Z" fill="white"/>
<path d="M16.0205 31.0882C16.0205 31.8115 16.6203 32.4113 17.3436 32.4113H23.324C23.8179 32.4113 24.259 32.1291 24.4883 31.7057C24.7176 31.2823 24.7 30.7531 24.4177 30.3473L19.8487 23.6436H23.324C24.0473 23.6436 24.6471 23.0438 24.6471 22.3205C24.6471 21.5972 24.0473 20.9974 23.324 20.9974H17.3436C16.8673 20.9974 16.4086 21.2621 16.1793 21.7031C15.9499 22.1265 15.9676 22.6557 16.2498 23.0615L20.8189 29.7651H17.3436C16.6201 29.7651 16.0205 30.365 16.0205 31.0882Z" fill="white"/>
<path d="M16.0205 76.2323H68.9619V38.5153H16.0205V76.2323ZM60.1058 41.1791H66.3156V50.1409H60.1058V41.1791ZM60.0884 52.787H66.2981V61.9781H60.0884V52.787ZM60.0884 64.6243H66.2981V73.5861H60.0884V64.6243ZM51.2325 41.1614H57.4422V50.1232H51.2325V41.1614ZM51.2325 52.787H57.4422V61.9781H51.2325V52.787ZM51.2325 64.6243H57.4422V73.5861H51.2325V64.6243ZM27.5226 41.1791H48.5863V50.1409H27.5226V41.1791ZM27.5226 52.787H48.5863V61.9781H27.5226V52.787ZM27.5226 64.6243H48.5863V73.5861H27.5226V64.6243ZM18.6667 41.1614H24.8764V50.1232H18.6667V41.1614ZM18.6667 52.787H24.8764V61.9781H18.6667V52.787ZM18.6667 64.6243H24.8764V73.5861H18.6667V64.6243Z" fill="white"/>
<path d="M57.1068 9.37191V6.30234H50.9147C50.3149 4.11483 48.8683 2.28013 46.8043 1.15109C44.1757 -0.383697 40.8062 -0.383697 38.1953 1.15109C36.1313 2.28013 34.6847 4.11483 34.0849 6.30234H27.8928V9.37191H8.7168L8.94613 85H76.2828V9.37191H57.1068ZM39.4481 3.47974L39.501 3.44446C41.318 2.36834 43.6467 2.36834 45.4637 3.44446L45.5166 3.47974C46.7163 4.13247 47.616 5.12038 48.1099 6.30234H36.8548C37.3662 5.12038 38.2661 4.11483 39.4481 3.47974ZM30.5214 8.94853H54.4606V12.2122H30.5214V8.94853ZM11.557 82.3538L11.3453 12.0181H27.8576V14.876H57.0891V12.0181H73.6014V82.3538H11.557Z" fill="white"/>
</svg>
